<?xml version="1.0" encoding="UTF-8" standalone="no"?>
<!DOCTYPE svg PUBLIC "-//W3C//DTD SVG 1.1//EN" "http://www.w3.org/Graphics/SVG/1.1/DTD/svg11.dtd">
<svg width="100%" height="100%" viewBox="0 0 512 512" version="1.1" xmlns="http://www.w3.org/2000/svg" xmlns:xlink="http://www.w3.org/1999/xlink" xml:space="preserve" xmlns:serif="http://www.serif.com/" style="fill-rule:evenodd;clip-rule:evenodd;stroke-linejoin:round;stroke-miterlimit:2;">
    <g transform="matrix(1,0,0,1,-3465.63,-4964.33)">
        <g id="Plan-de-travail4" serif:id="Plan de travail4" transform="matrix(1.06998,0,0,1.06998,-99.2847,4964.33)">
            <rect x="3331.76" y="0" width="478.514" height="478.514" style="fill:none;"/>
            <g transform="matrix(4.30136,0,0,4.30136,3571.01,247.604)">
                <g transform="matrix(1,0,0,1,-16,-16)">
                    <path d="M13.903,21.005C13.935,21.002 13.967,21 14,21L18,21C18.033,21 18.065,21.002 18.097,21.005C18.298,20.026 18.799,19.295 19.465,18.798C20.292,18.182 21.274,18 22,18C22.552,18 23,18.448 23,19C23,19.552 22.552,20 22,20C21.56,20 21.041,20.118 20.66,20.402C20.327,20.65 20,21.092 20,22C20,22.908 20.327,23.35 20.66,23.598C21.041,23.882 21.56,24 22,24C22.552,24 23,24.448 23,25C23,25.552 22.552,26 22,26C21.274,26 20.292,25.818 19.465,25.202C18.799,24.706 18.298,23.974 18.097,22.995C18.065,22.998 18.033,23 18,23L14,23C13.967,23 13.935,22.998 13.903,22.995C13.702,23.974 13.201,24.706 12.535,25.202C11.708,25.818 10.726,26 10,26C9.448,26 9,25.552 9,25C9,24.448 9.448,24 10,24C10.44,24 10.959,23.882 11.34,23.598C11.673,23.35 12,22.908 12,22C12,21.092 11.673,20.65 11.34,20.402C10.959,20.118 10.44,20 10,20C9.448,20 9,19.552 9,19C9,18.448 9.448,18 10,18C10.726,18 11.708,18.182 12.535,18.798C13.201,19.295 13.702,20.026 13.903,21.005Z" style="fill-rule:nonzero;"/>
                </g>
            </g>
        </g>
    </g>
</svg>
