<?xml version="1.0" encoding="UTF-8" standalone="no"?>
<!DOCTYPE svg PUBLIC "-//W3C//DTD SVG 1.1//EN" "http://www.w3.org/Graphics/SVG/1.1/DTD/svg11.dtd">
<svg width="100%" height="100%" viewBox="0 0 512 512" version="1.1" xmlns="http://www.w3.org/2000/svg" xmlns:xlink="http://www.w3.org/1999/xlink" xml:space="preserve" xmlns:serif="http://www.serif.com/" style="fill-rule:evenodd;clip-rule:evenodd;stroke-linejoin:round;stroke-miterlimit:2;">
    <g transform="matrix(1,0,0,1,-3465.63,-3811.43)">
        <g id="Plan-de-travail4" serif:id="Plan de travail4" transform="matrix(1.06998,0,0,1.06998,-99.2847,3811.43)">
            <rect x="3331.76" y="0" width="478.514" height="478.514" style="fill:none;"/>
            <g transform="matrix(4.13491,0,0,4.13491,3504.84,169.127)">
                <path d="M12.894,25.447C13.066,25.104 13.995,24 16,24C18.005,24 18.934,25.104 19.106,25.447C19.353,25.941 19.953,26.141 20.447,25.894C20.941,25.647 21.141,25.047 20.894,24.553C20.399,23.563 18.795,22 16,22C13.205,22 11.601,23.563 11.105,24.553C10.859,25.047 11.059,25.647 11.553,25.894C12.047,26.141 12.647,25.941 12.894,25.447Z" style="fill-rule:nonzero;"/>
            </g>
        </g>
    </g>
</svg>
