<?xml version="1.0" encoding="UTF-8" standalone="no"?>
<!DOCTYPE svg PUBLIC "-//W3C//DTD SVG 1.1//EN" "http://www.w3.org/Graphics/SVG/1.1/DTD/svg11.dtd">
<svg width="100%" height="100%" viewBox="0 0 512 512" version="1.1" xmlns="http://www.w3.org/2000/svg" xmlns:xlink="http://www.w3.org/1999/xlink" xml:space="preserve" xmlns:serif="http://www.serif.com/" style="fill-rule:evenodd;clip-rule:evenodd;stroke-linejoin:round;stroke-miterlimit:2;">
    <g transform="matrix(1,0,0,1,-3465.63,-4394.09)">
        <g id="Plan-de-travail4" serif:id="Plan de travail4" transform="matrix(1.06998,0,0,1.06998,-99.2847,4394.09)">
            <rect x="3331.76" y="0" width="478.514" height="478.514" style="fill:none;"/>
            <g transform="matrix(4.78056,1.00968e-17,-1.4424e-17,4.78056,3487.69,166.729)">
                <path d="M16.67,17.92C16.118,17.92 15.67,18.368 15.67,18.92C15.67,19.472 16.118,19.92 16.67,19.92C16.958,19.92 17.19,20.152 17.19,20.44C17.19,20.728 16.958,20.96 16.67,20.96C16.118,20.96 15.67,21.408 15.67,21.96C15.67,22.512 16.118,22.96 16.67,22.96C16.958,22.96 17.19,23.192 17.19,23.48C17.19,23.768 16.958,24 16.67,24C16.118,24 15.67,24.448 15.67,25C15.67,25.552 16.118,26 16.67,26C18.062,26 19.19,24.872 19.19,23.48C19.19,22.909 19,22.383 18.68,21.96C19,21.538 19.19,21.011 19.19,20.44C19.19,19.048 18.062,17.92 16.67,17.92Z" style="fill-rule:nonzero;"/>
            </g>
        </g>
    </g>
</svg>
