<?xml version="1.0" encoding="UTF-8" standalone="no"?>
<!DOCTYPE svg PUBLIC "-//W3C//DTD SVG 1.1//EN" "http://www.w3.org/Graphics/SVG/1.1/DTD/svg11.dtd">
<svg width="100%" height="100%" viewBox="0 0 512 512" version="1.1" xmlns="http://www.w3.org/2000/svg" xmlns:xlink="http://www.w3.org/1999/xlink" xml:space="preserve" xmlns:serif="http://www.serif.com/" style="fill-rule:evenodd;clip-rule:evenodd;stroke-linejoin:round;stroke-miterlimit:2;">
    <g transform="matrix(1,0,0,1,-5364.47,-6485.42)">
        <g id="Plan-de-travail4" serif:id="Plan de travail4" transform="matrix(1.06998,0,0,1.06998,1799.55,6485.42)">
            <rect x="3331.76" y="0" width="478.514" height="478.514" style="fill:none;"/>
            <g transform="matrix(3.4809,0,0,3.4809,3571.01,246.65)">
                <g transform="matrix(1,0,0,1,-16,-16)">
                    <path d="M11.939,21.647C12.525,21.061 13.475,21.061 14.061,21.647L16,23.586L17.939,21.647C18.525,21.061 19.475,21.061 20.061,21.647L22,23.586L23.793,21.793C24.183,21.402 24.817,21.402 25.207,21.793C25.598,22.183 25.598,22.817 25.207,23.207L23.061,25.354C22.475,25.939 21.525,25.939 20.939,25.354L19,23.414L17.061,25.354C16.475,25.939 15.525,25.939 14.939,25.354L13,23.414L11.061,25.354C10.475,25.939 9.525,25.939 8.939,25.354L6.793,23.207C6.402,22.817 6.402,22.183 6.793,21.793C7.183,21.402 7.817,21.402 8.207,21.793L10,23.586L11.939,21.647Z" style="fill-rule:nonzero;"/>
                </g>
            </g>
        </g>
    </g>
</svg>
