<?xml version="1.0" encoding="UTF-8" standalone="no"?>
<!DOCTYPE svg PUBLIC "-//W3C//DTD SVG 1.1//EN" "http://www.w3.org/Graphics/SVG/1.1/DTD/svg11.dtd">
<svg width="100%" height="100%" viewBox="0 0 512 512" version="1.1" xmlns="http://www.w3.org/2000/svg" xmlns:xlink="http://www.w3.org/1999/xlink" xml:space="preserve" xmlns:serif="http://www.serif.com/" style="fill-rule:evenodd;clip-rule:evenodd;stroke-linejoin:round;stroke-miterlimit:2;">
    <g transform="matrix(1,0,0,1,-3465.63,-3241.2)">
        <g id="Plan-de-travail4" serif:id="Plan de travail4" transform="matrix(1.06998,0,0,1.06998,-99.2847,3241.2)">
            <rect x="3331.76" y="0" width="478.514" height="478.514" style="fill:none;"/>
            <g transform="matrix(3.48688,0,0,3.48688,3516.09,191.665)">
                <path d="M14.384,22.401C13.61,23.304 12.475,24.5 10.5,24.5C8.532,24.5 6.892,23.306 6.293,22.707C5.902,22.317 5.902,21.684 6.293,21.293C6.683,20.902 7.317,20.902 7.707,21.293C8.108,21.694 9.268,22.5 10.5,22.5C11.525,22.5 12.14,21.946 12.866,21.099C12.928,21.027 12.992,20.95 13.06,20.87C13.353,20.521 13.697,20.112 14.06,19.794C14.54,19.375 15.172,19 16,19C17.282,19 18.138,19.63 18.764,20.091C18.811,20.125 18.856,20.159 18.901,20.191C19.544,20.659 20.077,21 21,21C22.665,21 23.52,20.168 23.668,19.945C23.974,19.486 24.595,19.362 25.055,19.668C25.514,19.974 25.638,20.595 25.332,21.055C24.814,21.833 23.335,23 21,23C19.423,23 18.456,22.341 17.724,21.809L17.691,21.785C16.975,21.264 16.613,21 16,21C15.829,21 15.648,21.063 15.377,21.299C15.14,21.507 14.924,21.763 14.642,22.098C14.562,22.192 14.477,22.293 14.384,22.401Z" style="fill-rule:nonzero;"/>
            </g>
        </g>
    </g>
</svg>
