<svg width="512" height="512" viewBox="0 0 512 512" fill="none" xmlns="http://www.w3.org/2000/svg">
<g clip-path="url(#clip0_99_14)">
<path fill-rule="evenodd" clip-rule="evenodd" d="M462.441 33.6509C466.447 31.7753 471.193 32.5459 474.4 35.6037C477.599 38.6545 478.602 43.3655 476.918 47.456C449.834 113.064 376.996 289.526 334.829 391.689C327.75 408.853 312.662 421.399 294.51 425.254C276.35 429.102 257.469 423.747 244.036 410.937C203.746 372.517 150.717 321.948 110.427 283.527C96.9939 270.718 90.7481 252.113 93.7298 233.791C96.7115 215.468 108.534 199.809 125.335 191.916C225.381 144.946 398.186 63.8126 462.441 33.6509Z" fill="#72A900"/>
</g>
<defs>
<clipPath id="clip0_99_14">
<rect width="512" height="512" fill="white"/>
</clipPath>
</defs>
</svg>
