<svg width="512" height="512" viewBox="0 0 512 512" fill="none" xmlns="http://www.w3.org/2000/svg">
<path d="M232.81 368.395C232.81 368.395 262.27 359.115 249.26 409.165C236.24 459.215 242.86 475.675 271.43 476.125C299.99 476.585 318.79 441.595 302.7 413.505C286.6 385.415 276.42 381.645 290.53 371.725C297.64 367.045 318.67 369.255 321.73 375.635C329.72 389.665 348.91 403.835 368.33 384.345C387.74 364.855 361.77 350.185 345.47 346.225C329.18 342.275 325.62 337.995 330.42 321.395C337.09 303.925 348.81 294.905 366.39 301.275C384.13 308.325 421.75 325.265 434.41 287.315C447.08 249.365 394.26 260.945 372.46 255.595C356.87 251.765 350.23 236.345 361.56 220.935C384.78 189.375 416.42 202.545 431.75 163.975C447.08 125.405 381.99 108.035 360.92 146.235C339.85 184.435 338.41 196.545 320.8 192.845C303.19 189.145 313.28 182.905 298.42 171.645C283.55 160.385 266.73 172.385 262.9 146.545C259.07 120.705 253.37 82.8152 223.57 86.4352C193.77 90.0552 203.37 115.175 213.07 138.985C222.77 162.795 188.57 182.205 177.64 131.785C166.71 81.3653 108.79 68.7953 91.7901 92.0953C74.7801 115.385 74.5603 148.685 127.25 175.005C179.93 201.325 167.67 204.825 163.32 216.825C158.97 228.815 145.97 226.915 140.42 240.545C134.86 254.175 160.35 272.225 147.33 288.895C134.32 305.575 100.34 281.395 81.2603 289.505C62.1803 297.625 55.0902 312.785 60.7102 337.065C66.3302 361.355 101.66 374.165 128.39 354.395C155.12 334.625 163.79 324.785 179.58 340.905C195.37 357.025 180.91 365.425 163.34 374.095C156.35 377.665 150.96 383.765 148.28 391.145C143.18 405.225 148.95 421.085 161.92 428.585C187.3 446.225 204.84 424.835 208.45 407.805C212.06 390.775 219.92 373.825 232.81 368.395Z" fill="#495DC8"/>
</svg>
