<?xml version="1.0" encoding="UTF-8" standalone="no"?>
<!DOCTYPE svg PUBLIC "-//W3C//DTD SVG 1.1//EN" "http://www.w3.org/Graphics/SVG/1.1/DTD/svg11.dtd">
<svg width="100%" height="100%" viewBox="0 0 512 512" version="1.1" xmlns="http://www.w3.org/2000/svg" xmlns:xlink="http://www.w3.org/1999/xlink" xml:space="preserve" xmlns:serif="http://www.serif.com/" style="fill-rule:evenodd;clip-rule:evenodd;stroke-linejoin:round;stroke-miterlimit:2;">
    <g transform="matrix(1,0,0,1,-2892.9,-4394.09)">
        <g id="Plan-de-travail4" serif:id="Plan de travail4" transform="matrix(1.06998,0,0,1.06998,-672.015,4394.09)">
            <rect x="3331.76" y="0" width="478.514" height="478.514" style="fill:none;"/>
            <g transform="matrix(4.41104,0,0,4.41104,-12643.9,179.559)">
                <g transform="matrix(0.934597,0,0,0.934597,3661.03,9.09495e-13)">
                    <path d="M9.349,13.413C9.14,13.641 9.03,13.944 8.982,14.191C8.876,14.733 8.351,15.087 7.809,14.982C7.267,14.876 6.913,14.351 7.018,13.809C7.107,13.353 7.328,12.656 7.876,12.06C8.453,11.431 9.316,11 10.5,11C11.695,11 12.562,11.452 13.136,12.082C13.68,12.679 13.906,13.374 13.985,13.829C14.08,14.373 13.715,14.891 13.171,14.985C12.627,15.08 12.109,14.715 12.015,14.171C11.98,13.974 11.875,13.668 11.657,13.429C11.469,13.222 11.142,13 10.5,13C9.847,13 9.528,13.217 9.349,13.413Z" style="fill-rule:nonzero;"/>
                </g>
                <g transform="matrix(0.934597,0,0,0.934597,3661.03,9.09495e-13)">
                    <path d="M20.349,13.413C20.14,13.641 20.03,13.944 19.982,14.191C19.876,14.733 19.351,15.087 18.809,14.982C18.267,14.876 17.913,14.351 18.019,13.809C18.107,13.353 18.328,12.656 18.876,12.06C19.453,11.431 20.316,11 21.5,11C22.696,11 23.562,11.452 24.136,12.082C24.68,12.679 24.906,13.374 24.985,13.829C25.08,14.373 24.715,14.891 24.171,14.985C23.627,15.08 23.109,14.715 23.015,14.171C22.981,13.974 22.876,13.668 22.657,13.429C22.469,13.222 22.142,13 21.5,13C20.847,13 20.529,13.217 20.349,13.413Z" style="fill-rule:nonzero;"/>
                </g>
            </g>
        </g>
    </g>
</svg>
