<?xml version="1.0" encoding="UTF-8" standalone="no"?>
<!DOCTYPE svg PUBLIC "-//W3C//DTD SVG 1.1//EN" "http://www.w3.org/Graphics/SVG/1.1/DTD/svg11.dtd">
<svg width="100%" height="100%" viewBox="0 0 512 512" version="1.1" xmlns="http://www.w3.org/2000/svg" xmlns:xlink="http://www.w3.org/1999/xlink" xml:space="preserve" xmlns:serif="http://www.serif.com/" style="fill-rule:evenodd;clip-rule:evenodd;stroke-linejoin:round;stroke-miterlimit:2;">
    <g transform="matrix(1,0,0,1,-4788.82,-4759.92)">
        <g id="Plan-de-travail4" serif:id="Plan de travail4" transform="matrix(1.06998,0,0,1.06998,1223.91,4759.92)">
            <rect x="3331.76" y="0" width="478.514" height="478.514" style="fill:none;"/>
            <g transform="matrix(3.93354,0,0,3.93354,3571.01,237.076)">
                <g transform="matrix(1,0,0,1,-16,-16)">
                    <path d="M14.5,13.5C14.5,16.261 12.261,18.5 9.5,18.5C6.739,18.5 4.5,16.261 4.5,13.5C4.5,10.739 6.739,8.5 9.5,8.5C12.261,8.5 14.5,10.739 14.5,13.5Z" style="fill:white;fill-rule:nonzero;"/>
                    <path d="M27.5,13.5C27.5,16.261 25.261,18.5 22.5,18.5C19.739,18.5 17.5,16.261 17.5,13.5C17.5,10.739 19.739,8.5 22.5,8.5C25.261,8.5 27.5,10.739 27.5,13.5Z" style="fill:white;fill-rule:nonzero;"/>
                    <path d="M8,13.5C8,12.119 9.119,11 10.5,11C11.881,11 13,12.119 13,13.5C13,14.881 11.881,16 10.5,16C9.119,16 8,14.881 8,13.5Z" style="fill-rule:nonzero;"/>
                    <path d="M19,13.5C19,12.119 20.119,11 21.5,11C22.881,11 24,12.119 24,13.5C24,14.881 22.881,16 21.5,16C20.119,16 19,14.881 19,13.5Z" style="fill-rule:nonzero;"/>
                    <path d="M9.5,8C12.018,8 14.14,9.691 14.793,12L17.207,12C17.86,9.691 19.982,8 22.5,8C25.018,8 27.14,9.691 27.793,12L29.913,12C30.511,12 31,12.45 31,13C31,13.55 30.511,14 29.913,14L27.978,14C27.725,16.803 25.369,19 22.5,19C19.631,19 17.275,16.803 17.022,14L14.978,14C14.725,16.803 12.369,19 9.5,19C6.631,19 4.275,16.803 4.022,14L2,14C1.448,14 1,13.552 1,13C1,12.448 1.448,12 2,12L4.207,12C4.86,9.691 6.982,8 9.5,8ZM5,13.5C5,15.985 7.015,18 9.5,18C11.985,18 14,15.985 14,13.5C14,11.015 11.985,9 9.5,9C7.015,9 5,11.015 5,13.5ZM18.007,13.5C18.007,15.981 20.019,17.993 22.5,17.993C24.981,17.993 26.993,15.981 26.993,13.5C26.993,11.019 24.981,9.007 22.5,9.007C20.019,9.007 18.007,11.019 18.007,13.5Z" style="fill-rule:nonzero;"/>
                </g>
            </g>
        </g>
    </g>
</svg>
