<?xml version="1.0" encoding="UTF-8" standalone="no"?>
<!DOCTYPE svg PUBLIC "-//W3C//DTD SVG 1.1//EN" "http://www.w3.org/Graphics/SVG/1.1/DTD/svg11.dtd">
<svg width="100%" height="100%" viewBox="0 0 512 512" version="1.1" xmlns="http://www.w3.org/2000/svg" xmlns:xlink="http://www.w3.org/1999/xlink" xml:space="preserve" xmlns:serif="http://www.serif.com/" style="fill-rule:evenodd;clip-rule:evenodd;stroke-linejoin:round;stroke-miterlimit:2;">
    <g transform="matrix(1,0,0,1,-4788.82,-5914.46)">
        <g id="Plan-de-travail4" serif:id="Plan de travail4" transform="matrix(1.06998,0,0,1.06998,1223.91,5914.46)">
            <rect x="3331.76" y="0" width="478.514" height="478.514" style="fill:none;"/>
            <g transform="matrix(3.69232,0,0,3.69232,3571.01,247.337)">
                <g transform="matrix(1,0,0,1,-16,-16)">
                    <path d="M11,5L5,5C2.791,5 1,6.791 1,9L1,9.674C1,12.325 2.498,14.749 4.87,15.935L5.805,16.403C7.207,17.104 8.849,17.197 10.325,16.67C13.111,15.675 15,13.025 15,10.067L15,9C15,6.791 13.209,5 11,5Z" style="fill:rgb(20,0,75);fill-rule:nonzero;"/>
                    <path d="M20.5,5L27.5,5C29.433,5 31,6.567 31,8.5L31,9.674C31,12.325 29.502,14.749 27.131,15.935L26.195,16.403C24.793,17.104 23.151,17.197 21.675,16.67C18.889,15.675 17,13.025 17,10.067L17,8.5C17,6.567 18.567,5 20.5,5Z" style="fill:rgb(20,0,75);fill-rule:nonzero;"/>
                    <path d="M14,6.354C13.267,5.524 12.195,5 11,5L5,5C2.791,5 1,6.791 1,9L1,9.674C1,12.325 2.498,14.749 4.87,15.935L5.805,16.403C7.207,17.104 8.849,17.197 10.325,16.67C13.111,15.675 15,13.025 15,10.067L15,10C15,9.448 15.448,9 16,9C16.552,9 17,9.448 17,10L17,10.067C17,13.025 18.889,15.675 21.675,16.67C23.151,17.197 24.793,17.104 26.195,16.403L27.131,15.935C29.502,14.749 31,12.325 31,9.674L31,8.5C31,6.567 29.433,5 27.5,5L20.5,5C19.376,5 18.376,5.53 17.735,6.354L17.735,6.351C17.721,6.365 17.704,6.382 17.686,6.401C17.494,6.598 17.103,6.997 16.74,7L14.996,7C14.632,6.997 14.242,6.598 14.05,6.401C14.031,6.383 14.015,6.365 14,6.351L14,6.354ZM11,6C12.657,6 14,7.343 14,9L14,10.067C14,12.598 12.382,14.873 9.989,15.728C8.767,16.164 7.408,16.086 6.253,15.508L5.317,15.04C3.284,14.024 2,11.946 2,9.674L2,9C2,7.343 3.343,6 5,6L11,6ZM18,8.5C18,7.119 19.119,6 20.5,6L27.5,6C28.881,6 30,7.119 30,8.5L30,9.674C30,11.946 28.716,14.024 26.683,15.04L25.747,15.508C24.592,16.086 23.233,16.164 22.011,15.728C19.618,14.873 18,12.598 18,10.067L18,8.5Z" style="fill-rule:nonzero;"/>
                    <path d="M12.389,10.268C12.975,9.682 12.817,8.574 12.036,7.793C11.255,7.012 10.147,6.854 9.561,7.439C8.975,8.025 9.133,9.133 9.914,9.914C10.695,10.695 11.803,10.854 12.389,10.268Z" style="fill:white;fill-rule:nonzero;"/>
                    <path d="M28.389,10.268C28.975,9.682 28.817,8.574 28.036,7.793C27.255,7.012 26.147,6.854 25.561,7.439C24.975,8.025 25.133,9.133 25.914,9.914C26.695,10.695 27.803,10.854 28.389,10.268Z" style="fill:white;fill-rule:nonzero;"/>
                </g>
            </g>
        </g>
    </g>
</svg>
