<?xml version="1.0" encoding="UTF-8" standalone="no"?>
<!DOCTYPE svg PUBLIC "-//W3C//DTD SVG 1.1//EN" "http://www.w3.org/Graphics/SVG/1.1/DTD/svg11.dtd">
<svg width="100%" height="100%" viewBox="0 0 512 512" version="1.1" xmlns="http://www.w3.org/2000/svg" xmlns:xlink="http://www.w3.org/1999/xlink" xml:space="preserve" xmlns:serif="http://www.serif.com/" style="fill-rule:evenodd;clip-rule:evenodd;stroke-linejoin:round;stroke-miterlimit:2;">
    <g transform="matrix(1,0,0,1,-2892.9,-4987.2)">
        <g id="Plan-de-travail4" serif:id="Plan de travail4" transform="matrix(1.06998,0,0,1.06998,-672.015,4987.2)">
            <rect x="3331.76" y="0" width="478.514" height="478.514" style="fill:none;"/>
            <g transform="matrix(4.59122,0,0,4.59122,3571.01,236.507)">
                <g transform="matrix(1,0,0,1,-16,-16)">
                    <path d="M13.958,17.38C14.608,16.6 15,15.596 15,14.5C15,12.015 12.985,10 10.5,10C8.015,10 6,12.015 6,14.5C6,15.596 6.392,16.6 7.042,17.38C7.462,17.17 7.989,16.945 8.59,16.776C9.169,16.612 10.5,16 10.5,16C10.5,16 12.435,16.744 13.183,17.035C13.469,17.147 13.73,17.266 13.958,17.38Z" style="fill:white;fill-rule:nonzero;"/>
                    <path d="M6.974,9.658C7.118,9.228 7.476,8.55 8.069,7.988C8.654,7.433 9.452,7 10.5,7C10.776,7 11,6.776 11,6.5C11,6.224 10.776,6 10.5,6C9.148,6 8.113,6.567 7.381,7.262C6.657,7.95 6.215,8.772 6.026,9.342C5.938,9.604 6.08,9.887 6.342,9.974C6.604,10.062 6.887,9.92 6.974,9.658Z" style="fill-rule:nonzero;"/>
                    <path d="M21,8.5C21,8.224 21.224,8 21.5,8C22.274,8 23.243,8.284 24.085,8.831C24.933,9.381 25.697,10.226 25.985,11.379C26.052,11.647 25.889,11.918 25.621,11.985C25.353,12.052 25.082,11.889 25.015,11.621C24.803,10.774 24.234,10.119 23.54,9.669C22.841,9.216 22.059,9 21.5,9C21.224,9 21,8.776 21,8.5Z" style="fill-rule:nonzero;"/>
                    <path d="M14,15C14,15.789 13.696,16.506 13.198,17.041C12.448,16.748 11.516,16.5 10.5,16.5C9.813,16.5 9.164,16.613 8.583,16.778C8.217,16.28 8,15.665 8,15C8,13.343 9.343,12 11,12C12.657,12 14,13.343 14,15Z" style="fill-rule:nonzero;"/>
                    <path d="M18.97,15.243C19.048,14.931 19.545,14 21,14C22.455,14 22.952,14.931 23.03,15.243C23.164,15.778 23.707,16.104 24.243,15.97C24.778,15.836 25.104,15.293 24.97,14.758C24.715,13.735 23.545,12 21,12C18.455,12 17.285,13.735 17.03,14.758C16.896,15.293 17.222,15.836 17.758,15.97C18.293,16.104 18.836,15.778 18.97,15.243Z" style="fill-rule:nonzero;"/>
                </g>
            </g>
        </g>
    </g>
</svg>
