<?xml version="1.0" encoding="UTF-8" standalone="no"?>
<!DOCTYPE svg PUBLIC "-//W3C//DTD SVG 1.1//EN" "http://www.w3.org/Graphics/SVG/1.1/DTD/svg11.dtd">
<svg width="100%" height="100%" viewBox="0 0 512 512" version="1.1" xmlns="http://www.w3.org/2000/svg" xmlns:xlink="http://www.w3.org/1999/xlink" xml:space="preserve" xmlns:serif="http://www.serif.com/" style="fill-rule:evenodd;clip-rule:evenodd;stroke-linejoin:round;stroke-miterlimit:2;">
    <g transform="matrix(1,0,0,1,-2892.9,-3241.2)">
        <g id="Plan-de-travail4" serif:id="Plan de travail4" transform="matrix(1.06998,0,0,1.06998,-672.015,3241.2)">
            <rect x="3331.76" y="0" width="478.514" height="478.514" style="fill:none;"/>
            <g transform="matrix(5.09324,0,0,5.09324,-13475.7,161.29)">
                <g transform="matrix(0.934597,0,0,0.934597,3331.76,4.54747e-13)">
                    <path d="M25.238,13.109C25.439,13.346 25.507,13.663 25.479,13.972C25.233,16.707 22.866,18.473 20.5,18C18.2,17.54 16.747,15.388 16.918,13.1C16.947,12.706 17.14,12.336 17.471,12.122C19.586,10.753 23.883,11.509 25.238,13.109Z" style="fill:white;fill-rule:nonzero;"/>
                </g>
                <g transform="matrix(0.934597,0,0,0.934597,3331.76,4.54747e-13)">
                    <path d="M7,15C7.167,16.167 8.172,18 11,18C15.5,18 15,12 15,12L7,15Z" style="fill:white;fill-rule:nonzero;"/>
                </g>
                <g transform="matrix(0.934597,0,0,0.934597,3331.76,4.54747e-13)">
                    <path d="M19.562,6.996C20.158,6.922 21.116,6.967 22.003,7.347C22.873,7.719 23.667,8.406 24.019,9.637C24.095,9.903 24.372,10.057 24.637,9.981C24.903,9.905 25.057,9.628 24.981,9.363C24.533,7.794 23.494,6.898 22.397,6.428C21.317,5.966 20.176,5.912 19.438,6.004C19.164,6.038 18.97,6.288 19.004,6.562C19.038,6.836 19.288,7.03 19.562,6.996Z" style="fill-rule:nonzero;"/>
                </g>
                <g transform="matrix(0.934597,0,0,0.934597,3331.76,4.54747e-13)">
                    <path d="M12.985,9.621C13.052,9.353 12.889,9.082 12.621,9.015C12.353,8.948 12.082,9.111 12.015,9.379C11.654,10.821 10.851,11.528 10.015,11.861C9.15,12.205 8.21,12.162 7.621,12.015C7.353,11.948 7.082,12.111 7.015,12.379C6.948,12.647 7.111,12.918 7.379,12.985C8.123,13.171 9.283,13.228 10.385,12.79C11.516,12.339 12.546,11.38 12.985,9.621Z" style="fill-rule:nonzero;"/>
                </g>
                <g transform="matrix(0.934597,0,0,0.934597,3331.76,4.54747e-13)">
                    <path d="M21,15C22.104,15 23,14.105 23,13C23,12.488 22.807,12.021 22.491,11.667C21.612,11.452 20.652,11.363 19.755,11.434C19.295,11.801 19,12.366 19,13C19,14.105 19.895,15 21,15ZM11,16C12.104,16 13,15.105 13,14C13,13.585 12.873,13.199 12.656,12.879L9.015,14.245C9.135,15.234 9.978,16 11,16Z"/>
                </g>
            </g>
        </g>
    </g>
</svg>
