<?xml version="1.0" encoding="UTF-8" standalone="no"?>
<!DOCTYPE svg PUBLIC "-//W3C//DTD SVG 1.1//EN" "http://www.w3.org/Graphics/SVG/1.1/DTD/svg11.dtd">
<svg width="100%" height="100%" viewBox="0 0 512 512" version="1.1" xmlns="http://www.w3.org/2000/svg" xmlns:xlink="http://www.w3.org/1999/xlink" xml:space="preserve" xmlns:serif="http://www.serif.com/" style="fill-rule:evenodd;clip-rule:evenodd;stroke-linejoin:round;stroke-miterlimit:2;">
    <g transform="matrix(1,0,0,1,-2892.9,-3834.3)">
        <g id="Plan-de-travail4" serif:id="Plan de travail4" transform="matrix(1.06998,0,0,1.06998,-672.015,3834.3)">
            <rect x="3331.76" y="0" width="478.514" height="478.514" style="fill:none;"/>
            <g transform="matrix(4.7709,0,0,4.7709,-13510.6,-631.05)">
                <g transform="matrix(0.934597,0,0,0.934597,3565.41,165.349)">
                    <path d="M6,15.5C6,15.331 6.009,15.164 6.027,15L10.031,15L12.332,15.923L14.464,15L14.973,15C14.991,15.164 15,15.331 15,15.5C15,17.985 12.985,20 10.5,20C8.015,20 6,17.985 6,15.5Z" style="fill:white;fill-rule:nonzero;"/>
                </g>
                <g transform="matrix(0.934597,0,0,0.934597,3565.41,165.349)">
                    <path d="M17,15.5C17,15.331 17.009,15.164 17.028,15L21.041,15L23.282,15.712L25.448,15L25.973,15C25.991,15.164 26,15.331 26,15.5C26,17.985 23.985,20 21.5,20C19.015,20 17,17.985 17,15.5Z" style="fill:white;fill-rule:nonzero;"/>
                </g>
                <g transform="matrix(0.934597,0,0,0.934597,3565.41,165.349)">
                    <path d="M10,15.25C10,15.166 10.005,15.082 10.014,15L14.486,15C14.495,15.082 14.5,15.166 14.5,15.25C14.5,16.495 13.495,17.5 12.25,17.5C11.006,17.49 10,16.485 10,15.25Z" style="fill-rule:nonzero;"/>
                </g>
                <g transform="matrix(0.934597,0,0,0.934597,3565.41,165.349)">
                    <path d="M21,15.25C21,15.166 21.005,15.082 21.014,15L25.486,15C25.495,15.082 25.5,15.166 25.5,15.25C25.5,16.495 24.494,17.5 23.25,17.5C22.006,17.49 21,16.485 21,15.25Z" style="fill-rule:nonzero;"/>
                </g>
                <g transform="matrix(0.934597,0,0,0.934597,3565.41,165.349)">
                    <path d="M8.069,9.988C7.476,10.551 7.118,11.228 6.974,11.658C6.887,11.92 6.604,12.062 6.342,11.974C6.08,11.887 5.938,11.604 6.026,11.342C6.215,10.772 6.657,9.95 7.381,9.262C8.113,8.567 9.148,8 10.5,8C10.776,8 11,8.224 11,8.5C11,8.776 10.776,9 10.5,9C9.452,9 8.654,9.433 8.069,9.988Z" style="fill-rule:nonzero;"/>
                </g>
                <g transform="matrix(0.934597,0,0,0.934597,3565.41,165.349)">
                    <path d="M23.931,9.988C24.524,10.551 24.882,11.228 25.026,11.658C25.113,11.92 25.396,12.062 25.658,11.974C25.92,11.887 26.062,11.604 25.975,11.342C25.785,10.772 25.343,9.95 24.619,9.262C23.887,8.567 22.852,8 21.5,8C21.224,8 21,8.224 21,8.5C21,8.776 21.224,9 21.5,9C22.548,9 23.347,9.433 23.931,9.988Z" style="fill-rule:nonzero;"/>
                </g>
            </g>
        </g>
    </g>
</svg>
