<?xml version="1.0" encoding="UTF-8" standalone="no"?>
<!DOCTYPE svg PUBLIC "-//W3C//DTD SVG 1.1//EN" "http://www.w3.org/Graphics/SVG/1.1/DTD/svg11.dtd">
<svg width="100%" height="100%" viewBox="0 0 512 512" version="1.1" xmlns="http://www.w3.org/2000/svg" xmlns:xlink="http://www.w3.org/1999/xlink" xml:space="preserve" xmlns:serif="http://www.serif.com/" style="fill-rule:evenodd;clip-rule:evenodd;stroke-linejoin:round;stroke-miterlimit:2;">
    <g transform="matrix(1,0,0,1,-4788.82,-5342.6)">
        <g id="Plan-de-travail4" serif:id="Plan de travail4" transform="matrix(1.06998,0,0,1.06998,1223.91,5342.6)">
            <rect x="3331.76" y="0" width="478.514" height="478.514" style="fill:none;"/>
            <g transform="matrix(4.51028,0,0,4.51028,3571.01,241.398)">
                <g transform="matrix(1,0,0,1,-16,-16)">
                    <path d="M7.293,9.293C7.683,8.902 8.317,8.902 8.707,9.293L10.5,11.086L12.293,9.293C12.683,8.902 13.317,8.902 13.707,9.293C14.098,9.683 14.098,10.317 13.707,10.707L11.914,12.5L13.707,14.293C14.098,14.683 14.098,15.317 13.707,15.707C13.317,16.098 12.683,16.098 12.293,15.707L10.5,13.914L8.707,15.707C8.317,16.098 7.683,16.098 7.293,15.707C6.902,15.317 6.902,14.683 7.293,14.293L9.086,12.5L7.293,10.707C6.902,10.317 6.902,9.683 7.293,9.293Z" style="fill-rule:nonzero;"/>
                    <path d="M23.293,9.293C23.683,8.902 24.317,8.902 24.707,9.293C25.098,9.683 25.098,10.317 24.707,10.707L22.914,12.5L24.707,14.293C25.098,14.683 25.098,15.317 24.707,15.707C24.317,16.098 23.683,16.098 23.293,15.707L21.5,13.914L19.707,15.707C19.317,16.098 18.683,16.098 18.293,15.707C17.902,15.317 17.902,14.683 18.293,14.293L20.086,12.5L18.293,10.707C17.902,10.317 17.902,9.683 18.293,9.293C18.683,8.902 19.317,8.902 19.707,9.293L21.5,11.086L23.293,9.293Z" style="fill-rule:nonzero;"/>
                </g>
            </g>
        </g>
    </g>
</svg>
