<?xml version="1.0" encoding="UTF-8" standalone="no"?>
<!DOCTYPE svg PUBLIC "-//W3C//DTD SVG 1.1//EN" "http://www.w3.org/Graphics/SVG/1.1/DTD/svg11.dtd">
<svg width="100%" height="100%" viewBox="0 0 512 512" version="1.1" xmlns="http://www.w3.org/2000/svg" xmlns:xlink="http://www.w3.org/1999/xlink" xml:space="preserve" xmlns:serif="http://www.serif.com/" style="fill-rule:evenodd;clip-rule:evenodd;stroke-linejoin:round;stroke-miterlimit:2;">
    <g transform="matrix(1,0,0,1,-4788.82,-6485.42)">
        <g id="Plan-de-travail4" serif:id="Plan de travail4" transform="matrix(1.06998,0,0,1.06998,1223.91,6485.42)">
            <rect x="3331.76" y="0" width="478.514" height="478.514" style="fill:none;"/>
            <g transform="matrix(4.23351,0,0,4.23351,3571.01,227.705)">
                <g transform="matrix(1,0,0,1,-16,-16)">
                    <path d="M15,16.5C15,18.985 12.985,21 10.5,21C8.015,21 6,18.985 6,16.5C6,14.015 8.015,12 10.5,12C12.985,12 15,14.015 15,16.5Z" style="fill:white;fill-rule:nonzero;"/>
                    <path d="M25.96,16.48C25.96,18.954 23.954,20.96 21.48,20.96C19.006,20.96 17,18.954 17,16.48C17,14.006 19.006,12 21.48,12C23.954,12 25.96,14.006 25.96,16.48Z" style="fill:white;fill-rule:nonzero;"/>
                    <path d="M10.88,12C8.74,12 7,13.74 7,15.88C7,18.02 8.74,19.76 10.88,19.76C13.02,19.76 14.76,18.02 14.76,15.88C14.76,13.74 13.02,12 10.88,12Z" style="fill-rule:nonzero;"/>
                    <path d="M20.88,12C18.74,12 17,13.74 17,15.88C17,18.02 18.74,19.76 20.88,19.76C23.02,19.76 24.76,18.02 24.76,15.88C24.76,13.74 23.02,12 20.88,12Z" style="fill-rule:nonzero;"/>
                    <path d="M13.163,15.937C13.908,15.7 14.212,14.867 13.844,14.072C13.476,13.284 12.583,12.826 11.837,13.063C11.092,13.3 10.788,14.133 11.156,14.928C11.525,15.723 12.417,16.174 13.163,15.937Z" style="fill:white;fill-rule:nonzero;"/>
                    <path d="M23.163,15.937C23.908,15.7 24.212,14.867 23.844,14.072C23.476,13.284 22.574,12.826 21.837,13.063C21.092,13.3 20.788,14.133 21.156,14.928C21.525,15.723 22.417,16.174 23.163,15.937Z" style="fill:white;fill-rule:nonzero;"/>
                    <path d="M8.952,9.2C9.492,8.725 9.827,8.073 10.017,7.369C10.09,7.103 10.364,6.945 10.631,7.017C10.897,7.09 11.055,7.364 10.983,7.631C10.758,8.461 10.342,9.309 9.612,9.951C8.873,10.6 7.855,11 6.5,11C6.224,11 6,10.776 6,10.5C6,10.224 6.224,10 6.5,10C7.645,10 8.419,9.667 8.952,9.2Z" style="fill-rule:nonzero;"/>
                    <path d="M21.983,7.369C22.173,8.073 22.508,8.725 23.048,9.2C23.581,9.667 24.355,10 25.5,10C25.776,10 26,10.224 26,10.5C26,10.776 25.776,11 25.5,11C24.145,11 23.127,10.6 22.388,9.951C21.658,9.309 21.242,8.461 21.017,7.631C20.945,7.364 21.103,7.09 21.369,7.017C21.636,6.945 21.91,7.103 21.983,7.369Z" style="fill-rule:nonzero;"/>
                </g>
            </g>
        </g>
    </g>
</svg>
