<?xml version="1.0" encoding="UTF-8" standalone="no"?>
<!DOCTYPE svg PUBLIC "-//W3C//DTD SVG 1.1//EN" "http://www.w3.org/Graphics/SVG/1.1/DTD/svg11.dtd">
<svg width="100%" height="100%" viewBox="0 0 512 512" version="1.1" xmlns="http://www.w3.org/2000/svg" xmlns:xlink="http://www.w3.org/1999/xlink" xml:space="preserve" xmlns:serif="http://www.serif.com/" style="fill-rule:evenodd;clip-rule:evenodd;stroke-linejoin:round;stroke-miterlimit:2;">
    <g transform="matrix(1,0,0,1,-2892.9,-2672.16)">
        <g id="Plan-de-travail4" serif:id="Plan de travail4" transform="matrix(1.06998,0,0,1.06998,-672.015,2672.16)">
            <rect x="3331.76" y="0" width="478.514" height="478.514" style="fill:none;"/>
            <g transform="matrix(4.86304,0,0,4.86304,3571.01,252.15)">
                <g transform="matrix(1,0,0,1,-16,-16)">
                    <path d="M9.447,8.106C8.953,7.859 8.353,8.059 8.106,8.553C7.859,9.047 8.059,9.647 8.553,9.894L10.764,11L8.553,12.105C8.059,12.352 7.859,12.953 8.106,13.447C8.353,13.941 8.953,14.141 9.447,13.894L13.447,11.894C13.786,11.725 14,11.379 14,11C14,10.621 13.786,10.275 13.447,10.105L9.447,8.106Z" style="fill-rule:nonzero;"/>
                    <path d="M22.553,8.106C23.047,7.859 23.648,8.059 23.895,8.553C24.141,9.047 23.941,9.647 23.447,9.894L21.236,11L23.447,12.105C23.941,12.352 24.141,12.953 23.895,13.447C23.648,13.941 23.047,14.141 22.553,13.894L18.553,11.894C18.214,11.725 18,11.379 18,11C18,10.621 18.214,10.275 18.553,10.105L22.553,8.106Z" style="fill-rule:nonzero;"/>
                </g>
            </g>
        </g>
    </g>
</svg>
